<svg version="1.1" id="Layer_1" xmlns="http://www.w3.org/2000/svg" xmlns:xlink="http://www.w3.org/1999/xlink" x="0px" y="0px"
	 width="100%" viewBox="0 0 544 432" enable-background="new 0 0 544 432" xml:space="preserve">
<path fill="#000000" opacity="1.000000" stroke="none" 
	d="
M355.826355,290.429016 
	C357.753448,296.035431 358.533264,301.485809 359.108490,306.930145 
	C359.430573,309.978485 360.811615,310.800049 363.586304,310.912903 
	C376.875977,311.453247 386.491241,305.119415 393.986328,294.827728 
	C402.009247,283.811371 405.840546,271.085999 408.652740,257.990784 
	C412.160645,241.655838 413.756683,225.014648 413.458557,208.415314 
	C412.689362,165.587357 434.290833,137.291336 470.230072,117.650230 
	C474.787292,115.159668 478.995728,114.749825 484.001892,116.513458 
	C493.568481,119.883659 503.339569,122.688164 513.080139,125.542061 
	C516.817505,126.637085 519.505676,128.412125 519.549500,132.621521 
	C519.593750,136.872818 516.798889,138.586990 513.150391,139.773529 
	C492.429443,146.512314 474.826782,157.555969 463.301392,176.694778 
	C456.812134,187.470688 453.476624,199.218124 453.259857,211.804749 
	C452.817657,237.483002 451.390228,263.035492 443.293793,287.695923 
	C435.376984,311.809021 422.781952,332.445068 400.005585,345.460388 
	C393.874756,348.963745 387.301575,351.336914 380.524414,353.063873 
	C377.607422,353.807190 376.357483,354.944611 376.241760,358.038879 
	C375.910828,366.885529 373.206543,369.345490 364.194641,369.346924 
	C280.871063,369.360077 197.547485,369.360107 114.223907,369.346558 
	C104.467171,369.344971 101.635178,365.577332 102.612221,356.073975 
	C104.125244,341.357178 109.071388,328.277374 118.970413,317.191895 
	C120.556183,315.416077 120.769295,313.331268 120.668533,311.122528 
	C119.949341,295.357727 125.339050,281.751740 135.263458,269.736450 
	C136.752136,267.934143 138.055603,266.116150 137.937775,263.499451 
	C137.392090,251.380508 140.149704,240.056183 146.407959,229.617218 
	C146.736038,229.069946 146.844315,228.390884 147.273972,227.130722 
	C136.156097,221.121277 125.066933,215.100128 113.948158,209.134155 
	C110.647636,207.363190 109.892990,210.442886 108.833321,212.235214 
	C101.288002,224.997345 94.538544,238.290451 86.215248,250.515488 
	C77.559532,263.228790 73.518242,276.554474 75.240845,291.773010 
	C75.594246,294.895203 75.227882,298.063690 74.423752,301.183502 
	C71.809349,311.326660 63.184917,317.264557 52.216213,316.320770 
	C43.063644,315.533264 35.069569,307.153168 34.768768,297.409698 
	C34.372803,284.583588 35.000343,271.761078 35.691021,258.949249 
	C35.795361,257.013733 36.820362,255.492508 37.737724,253.917542 
	C51.404148,230.454285 65.011826,206.956421 78.774063,183.549454 
	C89.884804,164.652206 107.164818,159.808334 126.561417,170.033127 
	C135.992493,175.004654 145.327652,180.157928 154.727585,185.189041 
	C156.160904,185.956177 157.450272,187.151199 159.683029,187.044891 
	C163.264969,180.316055 168.569916,174.450226 172.670380,167.909515 
	C175.709213,163.062256 176.171219,156.573532 177.655182,150.783737 
	C179.786758,142.467072 181.329620,141.166428 190.086761,141.070312 
	C196.918579,140.995316 203.752640,141.098114 210.583618,140.989655 
	C212.774002,140.954865 215.729248,141.945511 216.641678,138.972549 
	C217.455856,136.319733 217.688629,133.419983 215.800552,130.838425 
	C208.169052,120.403915 203.517899,108.373123 197.995941,96.841431 
	C194.487823,89.515305 199.566010,81.802147 207.649872,81.732491 
	C229.145615,81.547302 250.645355,81.543900 272.140778,81.750137 
	C280.208496,81.827545 285.420349,89.759163 281.835083,96.905464 
	C275.959625,108.616676 271.603119,121.161041 263.370270,131.637878 
	C261.566650,133.933136 261.954407,136.835983 262.742584,139.309509 
	C263.519440,141.747345 266.114563,140.918137 268.002228,140.941391 
	C275.833649,141.037888 283.668762,140.913818 291.498047,141.081573 
	C298.174957,141.224625 299.751251,142.611359 301.524353,149.154083 
	C302.219788,151.720306 302.866821,154.300964 303.473846,156.889587 
	C304.963196,163.240677 307.217499,169.069321 311.385956,174.379288 
	C320.205414,185.613937 324.073944,198.771820 324.281433,212.984589 
	C324.322479,215.795242 325.034088,218.025940 326.807831,220.267975 
	C335.725861,231.540329 340.965942,244.272552 341.417480,258.784576 
	C341.571472,263.734283 342.958832,267.988800 346.313324,271.971466 
	C350.719910,277.203125 353.636841,283.463989 355.826355,290.429016 
M236.500092,275.364899 
	C208.854095,275.360413 181.208115,275.362061 153.562119,275.341675 
	C150.877594,275.339691 148.417023,275.306854 146.373825,277.755310 
	C140.146469,285.217865 135.956192,293.567200 134.489456,303.205170 
	C133.477341,309.855713 134.195786,310.647339 141.029144,310.647949 
	C206.979904,310.654083 272.930664,310.658020 338.881439,310.631470 
	C340.827118,310.630676 342.880585,311.115082 345.023285,309.741577 
	C345.201599,298.664124 341.414154,288.826233 335.161865,279.693085 
	C332.964691,276.483521 330.389984,275.260925 326.433228,275.282257 
	C296.789581,275.442230 267.144653,275.367126 236.500092,275.364899 
M348.483612,350.942505 
	C351.481445,350.932892 354.480438,350.867706 357.476837,350.928711 
	C360.695496,350.994171 362.004364,350.082336 361.003326,346.461090 
	C359.064911,339.448761 355.904541,333.140778 351.648468,327.287048 
	C350.003693,325.024841 348.015472,324.257538 345.271912,324.259552 
	C275.153625,324.310760 205.035324,324.297546 134.917023,324.311829 
	C133.446106,324.312134 131.734802,323.886108 130.605118,325.066162 
	C123.830482,332.142822 118.986420,340.197357 117.708549,350.943176 
	C194.693008,350.943176 271.091400,350.943176 348.483612,350.942505 
M182.499939,261.685333 
	C228.960770,261.688141 275.421600,261.694489 321.882446,261.689209 
	C327.636566,261.688568 328.378693,260.980103 327.537048,255.371521 
	C326.183380,246.350891 322.968597,238.044388 317.533813,230.630341 
	C315.725098,228.162872 313.622742,226.890274 310.428497,226.895050 
	C263.468262,226.965210 216.507858,226.960480 169.547562,226.919266 
	C166.818909,226.916870 164.772842,227.831604 163.043213,229.901825 
	C156.326233,237.941315 152.564667,247.175507 151.582581,257.584686 
	C151.302902,260.548920 152.404892,261.778748 155.522720,261.727051 
	C164.179642,261.583344 172.840576,261.681824 182.499939,261.685333 
M256.500000,178.201996 
	C233.671021,178.201202 210.841202,178.300949 188.013809,178.110550 
	C183.702866,178.074600 180.774078,179.477600 178.340240,182.896515 
	C173.634644,189.506699 170.197083,196.547226 168.957703,204.689636 
	C167.768265,212.503891 167.808594,212.822159 175.357834,212.823471 
	C218.349686,212.830948 261.341522,212.829971 304.333374,212.830414 
	C305.333099,212.830429 306.333893,212.778961 307.332306,212.811157 
	C310.023987,212.897888 310.875031,211.455475 310.538788,209.010284 
	C309.179871,199.128311 306.068817,189.945816 300.116608,181.790512 
	C298.134888,179.075317 295.804779,178.092545 292.492584,178.135635 
	C280.830078,178.287399 269.164459,178.199493 256.500000,178.201996 
M444.670441,155.161560 
	C432.644806,169.975647 426.947968,186.865967 427.231476,205.996887 
	C427.473450,222.323593 426.099762,238.590286 423.302856,254.690231 
	C420.317413,271.875702 415.660675,288.531372 405.224792,302.890106 
	C396.790924,314.494263 385.940063,322.580566 371.212158,324.403259 
	C369.942474,324.560394 368.515442,324.656006 367.918671,326.240204 
	C369.945740,330.906189 371.969360,335.564178 374.029144,340.305481 
	C384.417664,338.289062 393.401306,334.152405 401.364777,327.854248 
	C417.494324,315.097626 426.001312,297.657867 431.718323,278.453339 
	C438.452789,255.830917 438.529907,232.483597 439.643951,209.231400 
	C440.880157,183.429367 452.051025,162.660858 471.804962,146.281723 
	C477.424713,141.622055 483.691498,137.910507 490.108734,134.078629 
	C482.581573,129.079102 478.234772,128.819336 471.547211,132.726990 
	C461.539825,138.574448 452.591400,145.700333 444.670441,155.161560 
M85.770332,224.331787 
	C90.984810,215.416428 96.169624,206.483536 101.423538,197.591476 
	C105.334892,190.971634 107.990280,190.171921 114.848351,193.810989 
	C126.178329,199.822983 137.417999,206.005035 148.734283,212.043106 
	C150.400391,212.932098 151.959610,214.484146 154.773834,213.616699 
	C154.773834,211.249435 154.298935,208.661682 154.878159,206.336502 
	C155.908478,202.200546 154.037415,200.489151 150.656464,198.747009 
	C140.441391,193.483414 130.427170,187.831436 120.302345,182.390991 
	C107.410934,175.463913 97.827011,178.194672 90.462776,190.823700 
	C78.883812,210.680618 67.540321,230.680496 55.611248,250.324768 
	C51.031479,257.866547 48.344105,265.396790 49.072182,274.278564 
	C49.436192,278.719147 48.672585,283.247009 48.500668,287.738556 
	C48.392433,290.566345 48.204590,293.421753 48.469139,296.225433 
	C48.798916,299.720337 50.747952,302.225189 54.423599,302.552246 
	C58.197018,302.888031 60.338024,300.697754 61.019054,297.133148 
	C61.391212,295.185211 61.585743,293.177887 61.612282,291.194031 
	C61.701431,284.529510 61.784122,277.861481 61.658852,271.198792 
	C61.587337,267.395172 62.523899,264.025970 64.456566,260.765228 
	C71.505844,248.871902 78.447327,236.914658 85.770332,224.331787 
M242.517075,120.031761 
	C245.342957,120.008141 248.169525,120.014748 250.994476,119.950058 
	C252.820557,119.908241 254.833755,120.005600 255.829361,118.061516 
	C259.503082,110.887909 263.091492,103.670616 267.011078,95.874847 
	C248.535645,95.874847 231.121597,95.874847 212.713821,95.874847 
	C215.401840,101.254066 218.134186,105.648560 219.855438,110.408676 
	C222.707214,118.295227 227.074722,122.731102 236.074249,120.188309 
	C237.772705,119.708412 239.712524,120.082733 242.517075,120.031761 
M272.498962,164.011963 
	C277.331604,164.005402 282.164551,164.028336 286.996704,163.976196 
	C288.676270,163.958069 290.744904,163.916992 290.410553,161.486526 
	C289.962372,158.228470 289.695129,155.086166 284.690125,155.119736 
	C255.028748,155.318619 225.364807,155.288147 195.703049,155.112930 
	C191.220810,155.086456 189.577362,157.313660 189.517838,160.999252 
	C189.444901,165.515152 193.280457,163.921188 195.509674,163.932068 
	C220.839096,164.055786 246.169312,164.011810 272.498962,164.011963 
M245.010178,134.322662 
	C241.550751,134.323761 238.090942,134.356384 234.632034,134.314575 
	C232.421417,134.287857 231.262451,135.155380 231.285767,137.512436 
	C231.307739,139.734268 232.235596,140.926300 234.505661,140.934113 
	C238.129379,140.946533 241.753342,140.973038 245.376785,140.943298 
	C246.967148,140.930252 248.371933,140.504486 248.559891,138.585556 
	C248.764175,136.499756 248.776443,134.486557 245.010178,134.322662 
z"/>
</svg>